<svg xmlns="http://www.w3.org/2000/svg" width="20" height="20" viewBox="0 0 20 20"><defs><style>.cls-1{opacity:.4}.cls-2{fill:#fff}.cls-3{fill:none}</style></defs><g id="组_1507" class="cls-1" data-name="组 1507" transform="translate(-1208 -356)"><path id="路径_473" d="M205.658,67.245V65.661a1.447,1.447,0,0,0-1.481-1.413h-1.649a1.449,1.449,0,0,0-1.481,1.413v1.585H199.1V65.661a3.356,3.356,0,0,1,3.428-3.271h1.649a3.353,3.353,0,0,1,3.428,3.271v1.585ZM204.04,78.39h-1.6a5.085,5.085,0,0,1-5.2-4.96V68.236h12v5.193a5.085,5.085,0,0,1-5.2,4.96Zm-.555-8.016a1.323,1.323,0,0,0-1.354,1.29,1.288,1.288,0,0,0,.832,1.19v2.274a.52.52,0,0,0,1.038,0V72.857a1.3,1.3,0,0,0,.835-1.193,1.322,1.322,0,0,0-1.352-1.29Z" class="cls-2" data-name="路径 473" transform="translate(1014.761 295.609)"/><rect id="矩形_1349" width="20" height="20" class="cls-3" data-name="矩形 1349" transform="translate(1208 356)"/></g></svg>