<svg xmlns="http://www.w3.org/2000/svg" xmlns:xlink="http://www.w3.org/1999/xlink" width="55.037" height="55.037" viewBox="0 0 55.037 55.037"><defs><style>.cls-1{fill:url(#linear-gradient)}.cls-2{fill:#fff}</style><linearGradient id="linear-gradient" x1=".125" x2=".859" y1=".085" y2=".897" gradientUnits="objectBoundingBox"><stop offset="0" stop-color="#ffb600"/><stop offset="1" stop-color="#fd8d15"/></linearGradient></defs><g id="组_1669" data-name="组 1669" transform="translate(-134.627 -186.648)"><rect id="矩形_1410" width="55.037" height="55.037" class="cls-1" data-name="矩形 1410" rx="7.907" transform="translate(134.627 186.648)"/><g id="组_1408" data-name="组 1408" transform="translate(145.302 192.219)"><path id="路径_545" d="M171.746,207.056s-15.756-4.721-18.693-5.565h-.008v.007l.005,0c-1.848,4.053,3.859,15.2,10.659,13.876-7.4,2.383-13.4-8.738-12-13.569-.2.055-.4.117-.632.193a20.945,20.945,0,0,0-4.045,1.722v.008c-.195.109-.4.233-.59.357-4.223,2.734-8.058,8.5-3.121,21.943H149.6c.211-.567.3-.753.545-1.352,1.513-3.617,4.788-5.856,7.976-4.865,2.462.766,4,2.715,2.91,6.217h7.156c0-9,4.719-19.085,4.719-19.085Z" class="cls-2" data-name="路径 545" transform="translate(-140.992 -182.17)"/><path id="路径_546" d="M169.839,199.491c-1.01-6.437-6.017-10.171-11.724-9.427-3.882.5-7.812,5.11-4.659,9.76a.94.94,0,0,0,.777.411.858.858,0,0,0,.62-.272,1.28,1.28,0,0,0,.039-1.576,3.348,3.348,0,0,1-.278-1.358,3.94,3.94,0,0,1,7.881-.039,6.3,6.3,0,0,1-1.9,4.558,5.3,5.3,0,0,1-2.563,1.14c-.3.062-.621.117-.956.171v.008c-.022,0-.039.007-.06.007-2.772.481-6.306,1.189-8.689,6.421-1.848,4.053,3.859,15.2,10.659,13.876H159c2.64-.52,5.435-2.92,8.02-8.317C167.02,214.856,170.864,205.981,169.839,199.491Zm-9.38,7.949v0h0a1.347,1.347,0,0,1-.294.114l0,0a1.356,1.356,0,0,1-.322.044,1.33,1.33,0,0,1-1.33-1.33,1.277,1.277,0,0,1,.027-.268,1.342,1.342,0,0,1,.362-.681,1.32,1.32,0,0,1,.939-.389,1.336,1.336,0,0,1,1.335,1.337c0,.03-.01.057-.012.087a1.439,1.439,0,0,1-.032.226c-.01.039-.023.075-.037.114a1.152,1.152,0,0,1-.1.218c-.01.02-.02.04-.032.06A1.332,1.332,0,0,1,160.459,207.44Z" class="cls-2" data-name="路径 546" transform="translate(-136.267 -189.97)"/></g></g></svg>