<svg xmlns="http://www.w3.org/2000/svg" width="20" height="20" viewBox="0 0 20 20">
  <defs>
    <style>
      .cls-1 {
        opacity: 0.4;
      }

      .cls-2 {
        fill: none;
      }

      .cls-3 {
        fill: #fff;
      }
    </style>
  </defs>
  <g id="组_1687" data-name="组 1687" class="cls-1" transform="translate(-2318 -462)">
    <rect id="矩形_1426" data-name="矩形 1426" class="cls-2" width="20" height="20" transform="translate(2318 462)"/>
    <path id="路径_561" data-name="路径 561" class="cls-3" d="M229.608,78.994v-.6h0ZM233.969,64h-8.723A1.224,1.224,0,0,0,224,65.2V79.585a1.224,1.224,0,0,0,1.246,1.2h8.723a1.224,1.224,0,0,0,1.246-1.2V65.2A1.224,1.224,0,0,0,233.969,64Zm-4.361,15.593a1.2,1.2,0,1,1,1.246-1.2A1.224,1.224,0,0,1,229.608,79.593Zm3.738-3.6h-7.477V65.8h7.477Z" transform="translate(2098.574 400)"/>
  </g>
</svg>
