<svg xmlns="http://www.w3.org/2000/svg" width="24" height="24" viewBox="0 0 24 24">
  <defs>
    <style>
      .cls-1 {
        fill: #51b7ec;
      }

      .cls-2 {
        fill: none;
      }
    </style>
  </defs>
  <g id="组_1897" data-name="组 1897" transform="translate(-664 -456)">
    <path id="路径_365" data-name="路径 365" class="cls-1" d="M85.382,138.6q-.508-1.369-1.108-2.7c.019-.215.028-.433.028-.654,0-3.4-1.74-6.156-5.047-6.156s-5.047,2.756-5.047,6.156c0,.207.009.411.025.613q-.608,1.355-1.123,2.749c-.7,1.888-.727,3.594-.485,3.721.172.09.8-.57,1.4-1.638a5.275,5.275,0,0,0,1.543,3.108c-.761.243-1.266.584-1.266.868,0,.484,1.324.43,3.11.411.324,0,.634-.022.929-.051a6.911,6.911,0,0,0,1.924-.011c.3.029.61.047.936.05,1.785.018,3.108.072,3.108-.408,0-.291-.54-.642-1.342-.885a5.28,5.28,0,0,0,1.515-3.063c.6,1.047,1.216,1.692,1.388,1.6C86.112,142.185,86.081,140.482,85.382,138.6Z" transform="translate(596.513 330.913)"/>
    <rect id="矩形_1581" data-name="矩形 1581" class="cls-2" width="24" height="24" transform="translate(664 456)"/>
  </g>
</svg>
