<svg xmlns="http://www.w3.org/2000/svg" width="20" height="20" viewBox="0 0 20 20"><defs><style>.cls-1{opacity:.4}.cls-2{fill:none}.cls-3{fill:#fff}</style></defs><g id="组_1670" class="cls-1" data-name="组 1670" transform="translate(-1226 -446)"><rect id="矩形_1425" width="20" height="20" class="cls-2" data-name="矩形 1425" transform="translate(1226 446)"/><path id="路径_560" d="M173.589,99.287a1.093,1.093,0,0,0-.863-.959,20.378,20.378,0,0,1-2.791-.642,10.366,10.366,0,0,1-2.494-1.457,1.141,1.141,0,0,0-1.333,0,6.54,6.54,0,0,1-2.512,1.448,9.369,9.369,0,0,1-2.714.671,1.017,1.017,0,0,0-.853.959s-.029,2.407-.029,4.526c0,3.836,4.526,7.547,6.79,7.547s6.1-2.618,6.713-7.489a44.22,44.22,0,0,0,.047-4.593l.039-.01Zm-2.465,2.963-4.728,4.459a.642.642,0,0,1-.786.077l-.124-.106-2.609-2.713a.651.651,0,1,1,.959-.882l2.148,2.254,4.258-4.028a.652.652,0,1,1,.882.959v-.02Z" class="cls-3" data-name="路径 560" transform="translate(1069 351.987)"/></g></svg>