<svg xmlns="http://www.w3.org/2000/svg" width="24" height="24" viewBox="0 0 24 24"><defs><style>.cls-1{fill:#37d532}.cls-2{fill:none}</style></defs><g id="组_1896" data-name="组 1896" transform="translate(-707 -456)"><path id="微信" d="M17.159,8.757a2.534,2.534,0,0,1,.68.062c-.618-2.78-3.583-4.88-6.981-4.88-3.83,0-6.919,2.595-6.919,5.931a5.745,5.745,0,0,0,2.78,4.695l-.68,2.1,2.409-1.236a10.846,10.846,0,0,0,2.409.371h.68a5.734,5.734,0,0,1-.185-1.483,5.559,5.559,0,0,1,5.807-5.56ZM13.452,6.842a.865.865,0,1,1,0,1.73,1.016,1.016,0,0,1-1.05-.865A.975.975,0,0,1,13.452,6.842Zm-4.88,1.73a1.016,1.016,0,0,1-1.05-.865.975.975,0,0,1,1.05-.865.845.845,0,0,1,.865.865A.81.81,0,0,1,8.572,8.572Zm14.95,5.622c0-2.78-2.78-5.066-5.869-5.066-3.336,0-5.93,2.286-5.93,5.066s2.595,5.066,5.93,5.066a8.85,8.85,0,0,0,2.1-.371l1.915,1.05-.494-1.73a5.517,5.517,0,0,0,2.347-4.015Zm-7.846-.927a.68.68,0,0,1,0-1.359.784.784,0,0,1,.865.68C16.541,12.958,16.232,13.267,15.676,13.267Zm3.83,0a.68.68,0,1,1,0-1.359.828.828,0,0,1,.865.68A.782.782,0,0,1,19.506,13.267Z" class="cls-1" transform="translate(705.062 456.062)"/><rect id="矩形_1583" width="24" height="24" class="cls-2" data-name="矩形 1583" transform="translate(707 456)"/></g></svg>