<svg xmlns="http://www.w3.org/2000/svg" width="24" height="24" viewBox="0 0 24 24">
  <defs>
    <style>
      .cls-1 {
        fill: #eb192d;
      }

      .cls-2 {
        fill: none;
      }
    </style>
  </defs>
  <g id="组_1895" data-name="组 1895" transform="translate(-753 -456)">
    <g id="组_1080" data-name="组 1080" transform="translate(754.995 460)">
      <path id="路径_139" data-name="路径 139" class="cls-1" d="M652.974,118.569a.583.583,0,0,0,.58-.491.335.335,0,0,0,.008-.062,2.649,2.649,0,0,0-3.248-3.233.584.584,0,1,0,0,1.167c2.645-.58,2.066,2.035,2.066,2.035A.588.588,0,0,0,652.974,118.569Zm-.426-6.818a7.557,7.557,0,0,0-2.956.027c-.031,0-.054.027-.081.035a.072.072,0,0,0-.023.015.85.85,0,0,0,.234,1.67,4.373,4.373,0,0,0,.779-.18,4.552,4.552,0,0,1,4.266,2.081,3.723,3.723,0,0,1,.261,2.818,2.465,2.465,0,0,0-.173.818.784.784,0,0,0,.86.764c.4,0,.729-.054.825-.718h0C657.961,114.446,654.829,112.273,652.548,111.751Z" transform="translate(-636.159 -111.612)"/>
      <path id="减去_44" data-name="减去 44" class="cls-1" d="M8.615,13.486c-.276,0-.549-.01-.812-.03C4.483,13.2.436,12.126.014,8.429A5.779,5.779,0,0,1,1.5,4.537C1.525,4.5,3.995,1.22,6.831.286A5.039,5.039,0,0,1,8.352,0c1.1,0,1.683.649,1.683,1.876-.023.118-.049.232-.073.332-.071.306-.122.526-.034.637a.265.265,0,0,0,.221.078,1.991,1.991,0,0,0,.523-.1,7.55,7.55,0,0,1,2.57-.6,1.966,1.966,0,0,1,1.411.462,1.778,1.778,0,0,1,.155,2.141.324.324,0,0,0-.084.285c.042.13.208.223.495.277a3.24,3.24,0,0,1,2.1,1.532A2.842,2.842,0,0,1,17.151,9.5C15.871,12.117,11.888,13.486,8.615,13.486Zm-2.4-6.875A1.547,1.547,0,1,0,7.8,8.158,1.567,1.567,0,0,0,6.213,6.611Z" transform="translate(-0.001 2.514)"/>
    </g>
    <rect id="矩形_1582" data-name="矩形 1582" class="cls-2" width="24" height="24" transform="translate(753 456)"/>
  </g>
</svg>
